<!-- copied from Franz/recipes/chatwork/icon.svg -->
<svg xmlns="http://www.w3.org/2000/svg" xmlns:xlink="http://www.w3.org/1999/xlink" viewBox="0 0 1024 1024"><defs><style>.cls-1{isolation:isolate;}.cls-2{fill:#e84228;}.cls-3{fill:#413c39;}.cls-4,.cls-5,.cls-6{mix-blend-mode:multiply;}.cls-4{fill:url(#linear-gradient);}.cls-5{fill:url(#linear-gradient-2);}.cls-6{fill:url(#linear-gradient-3);}</style><linearGradient id="linear-gradient" x1="5566.26" y1="6257.39" x2="5566.26" y2="6405.62" gradientTransform="translate(-5157.08 -5801.05)" gradientUnits="userSpaceOnUse"><stop offset="0" stop-color="#413c39" stop-opacity="0"/><stop offset="0.1" stop-color="#474240" stop-opacity="0.04"/><stop offset="0.25" stop-color="#585451" stop-opacity="0.15"/><stop offset="0.45" stop-color="#74716e" stop-opacity="0.34"/><stop offset="0.68" stop-color="#9b9896" stop-opacity="0.59"/><stop offset="0.93" stop-color="#cccac9" stop-opacity="0.91"/><stop offset="1" stop-color="#d9d8d7"/></linearGradient><linearGradient id="linear-gradient-2" x1="5421.89" y1="6422.15" x2="5421.89" y2="6570.37" gradientTransform="translate(-5966.25 6037.14) rotate(-90)" xlink:href="#linear-gradient"/><linearGradient id="linear-gradient-3" x1="5267.86" y1="6294.03" x2="5267.86" y2="6442.26" gradientTransform="translate(5882.56 6861.61) rotate(180)" xlink:href="#linear-gradient"/></defs><title>アートボード 1</title><g class="cls-1"><g id="レイヤー_1" data-name="レイヤー 1"><path class="cls-2" d="M948.73,526.31a225,225,0,0,0-151.08-65.92H666.22A103.29,103.29,0,0,0,769.57,563.57H802v.06A122.54,122.54,0,0,1,876.09,599c48.09,48.06,48.09,126.3,0,174.42a123.23,123.23,0,0,1-209.72-73.94h.07l-.2-135.57V460.39H563.17V563.63H460.81V347.76C461.05,279,441.55,224.58,394.93,178c-88.11-88.08-231.5-88.08-319.67,0s-88.16,231.58,0,319.72a224.92,224.92,0,0,0,151.09,65.94h121c-68.8-.23-123.19,19.26-169.8,65.9-88.09,88.1-88.09,231.47,0,319.65s231.58,88.17,319.72,0A225,225,0,0,0,563.17,798.1V676.25c-.23,68.8,19.26,123.18,65.9,169.78,88.09,88.08,231.47,88.08,319.66,0S1036.9,614.46,948.73,526.31ZM802.25,563.43v-.2l.06.07ZM221.73,460.77l-.06-.07.06-.13Zm32.67-.33H222v-.05A122.48,122.48,0,0,1,147.89,425c-48.08-48.05-48.08-126.3,0-174.4a123.25,123.25,0,0,1,209.73,73.93h-.09V563.63A103.11,103.11,0,0,0,254.4,460.44ZM460.25,802.78l-.14-.07h.2ZM460,770v32.44h-.05a122.52,122.52,0,0,1-35.34,74.09c-48.06,48.07-126.3,48.07-174.41,0a123.43,123.43,0,0,1,0-174.4,122.18,122.18,0,0,1,73.93-35.32v.06H563.17A103.12,103.12,0,0,0,460,770Z"/><path class="cls-3" d="M846.46,74.82c-88.14-88.17-231.58-88.17-319.73,0A225,225,0,0,0,460.81,225.9V357.12A103.12,103.12,0,0,0,564,254V221.54h.07a122.43,122.43,0,0,1,35.33-74.07c48.06-48.1,126.29-48.1,174.41,0a123.4,123.4,0,0,1,0,174.39,122.11,122.11,0,0,1-73.93,35.33v-.07H460.81V460.37H676.67c68.8.23,123.19-19.26,169.79-65.9C934.54,306.39,934.54,163,846.46,74.82ZM563.66,221.31l.07-.07.13.07Z"/><rect class="cls-4" x="357.55" y="460.3" width="103.25" height="103.31"/><rect class="cls-5" x="459.86" y="563.61" width="103.31" height="103.27"/><rect class="cls-6" x="563.17" y="460.3" width="103.05" height="103.31"/></g></g></svg>
